PathFileType	4	(X/Y/Z)	markers
DataRate	CameraRate	NumFrames	NumMarkers	Units	OrigDataRate	OrigDataStartFrame	OrigNumFrames
200	200	6	39	mm	200	1	257
Frame#	Time	RASI			LASI			RPSI			LPSI			RTH1			RTH2			RTH3			RTH4			RLFC			RTB1			RTB2			RTB3			RTB4			RLMAL			RCAL			RTOE			RMT5			LTH1			LTH2			LTH3			LTH4			LLFC			LTB1			LTB2			LTB3			LTB4			LLMAL			LCAL			LTOE			LMT5			C7			T10			CLAV			RACR			LACR			RLEL			RFAradius			LLEL			LFAradius		
		X1	Y1	Z1	X2	Y2	Z2	X3	Y3	Z3	X4	Y4	Z4	X5	Y5	Z5	X6	Y6	Z6	X7	Y7	Z7	X8	Y8	Z8	X9	Y9	Z9	X10	Y10	Z10	X11	Y11	Z11	X12	Y12	Z12	X13	Y13	Z13	X14	Y14	Z14	X15	Y15	Z15	X16	Y16	Z16	X17	Y17	Z17	X18	Y18	Z18	X19	Y19	Z19	X20	Y20	Z20	X21	Y21	Z21	X22	Y22	Z22	X23	Y23	Z23	X24	Y24	Z24	X25	Y25	Z25	X26	Y26	Z26	X27	Y27	Z27	X28	Y28	Z28	X29	Y29	Z29	X30	Y30	Z30	X31	Y31	Z31	X32	Y32	Z32	X33	Y33	Z33	X34	Y34	Z34	X35	Y35	Z35	X36	Y36	Z36	X37	Y37	Z37	X38	Y38	Z38	X39	Y39	Z39
1	0.000000	-285.435557	1011.894874	694.301121	-294.936022	1046.874206	463.639188	-445.163032	1077.277207	638.812284	-454.105916	1082.514435	541.318062	-393.740986	755.565718	721.871617	-344.551423	740.636097	683.774558	-381.489591	645.138957	669.191290	-419.725177	653.556222	695.631546	-487.740804	540.281786	676.006802	-590.375583	470.641486	701.830665	-566.477290	431.982327	671.068368	-643.894692	367.993113	653.883873	-676.801930	408.978229	689.776394	-838.998261	283.342856	657.348701	-903.558051	320.523498	603.878381	-800.049694	124.946561	561.907381	-824.038659	144.125785	662.626632	-241.557657	803.285319	402.252917	-210.550290	823.432280	437.265661	-164.864288	732.974000	464.118187	-204.867720	702.022073	418.494497	-182.834344	581.335324	432.124567	-175.878870	482.858412	407.134094	-132.545698	485.115620	431.987060	-137.159089	383.380981	450.250587	-190.595368	372.337083	415.315755	-170.785082	159.028949	456.400729	-243.597578	106.014729	513.390946	-21.050565	146.985606	535.938416	-57.254271	121.759603	438.990759	-372.766641	1570.527871	596.511162	-455.017289	1376.981486	616.636766	-266.364239	1488.575663	593.819259	-299.972576	1547.273097	746.663969	-353.365988	1548.201592	422.444756	-301.196095	1221.005404	847.161063	-115.059008	1260.254671	687.934991	-583.485316	1313.144362	333.167183	-367.629987	1178.926231	363.985646
2	0.005000	-270.172947	1012.638975	693.708271	-280.157147	1047.415692	463.049219	-429.636380	1077.744907	639.377984	-439.260512	1082.977488	541.305036	-376.231150	755.208375	721.474294	-325.610875	741.167627	682.919565	-362.549042	645.670487	668.336297	-400.325000	653.734008	694.996647	-468.682381	539.399401	675.474082	-573.714237	470.994080	701.854100	-550.008416	432.405759	671.270865	-628.407621	370.446294	653.517585	-660.833627	412.946350	690.007578	-827.188623	292.080280	658.228761	-892.111492	329.750505	606.427990	-791.015104	133.305206	560.795612	-814.015163	152.388782	661.930039	-228.908711	801.456676	401.556723	-196.983062	819.732760	436.968488	-153.651282	729.573462	463.499751	-192.662633	698.273973	417.888730	-171.952160	578.491289	431.756225	-162.913849	480.488919	407.282552	-119.123211	484.033208	430.510582	-121.995280	381.905949	450.382775	-175.431558	370.862050	415.447943	-149.339296	157.181286	457.121619	-220.600731	102.201833	513.088487	0.019434	149.716299	537.987580	-34.699967	122.322160	440.394652	-358.209259	1570.924554	595.998112	-440.031261	1377.478787	616.497249	-250.950734	1488.717642	592.186166	-284.511528	1548.033171	746.102426	-338.503369	1547.734753	422.016820	-287.141353	1222.329909	847.682862	-101.239547	1258.915552	687.746935	-569.846519	1313.110806	333.542894	-352.301444	1178.891378	363.424179
3	0.010000	-254.295731	1013.516746	692.767401	-265.342455	1046.779377	462.853351	-413.889028	1077.866051	639.304683	-424.126065	1082.863933	541.465169	-358.600305	754.665315	721.065942	-306.431272	741.149122	682.096496	-343.369439	645.651982	667.513229	-380.685767	653.361758	694.393674	-450.190545	538.434609	675.572253	-555.873971	472.119634	701.979697	-533.182431	432.536897	671.979783	-612.704976	372.674180	653.204193	-645.567059	417.043596	689.701313	-813.399334	298.914421	659.017967	-879.707908	338.061770	608.899491	-781.160291	140.878405	560.428681	-801.186458	158.827893	661.694225	-215.643285	798.005193	399.294477	-185.687991	816.394576	436.537287	-142.309587	725.015190	463.621385	-180.842244	695.065849	416.804268	-160.865850	575.834801	431.487298	-150.521121	478.303799	406.972222	-107.510665	482.010709	431.254604	-107.726188	380.421377	450.031495	-161.162466	369.377478	415.096663	-129.255382	155.338986	457.834592	-199.597513	98.365146	513.185658	19.368497	151.823894	539.441070	-13.218735	123.722849	442.122847	-342.362351	1569.553754	594.244185	-425.185352	1377.557454	616.367377	-236.553991	1489.778394	591.648846	-269.868624	1547.995770	745.531686	-323.979136	1546.976547	421.525533	-272.504574	1222.822993	847.973887	-87.150008	1257.240773	686.487611	-554.532725	1311.496820	334.552401	-336.318377	1178.944296	362.579530
4	0.015000	-239.284351	1013.874663	692.267812	-250.319886	1046.669668	462.073953	-398.968121	1077.616592	639.020191	-408.902046	1082.363704	541.674524	-340.856466	753.931791	720.654863	-287.547245	740.637518	681.345071	-324.485412	645.140378	666.761804	-361.342111	652.496410	693.862343	-427.868993	535.093197	673.773097	-537.295791	472.167523	701.936308	-516.118469	431.575440	672.539836	-597.060910	374.581133	653.023993	-630.243222	421.181327	689.603513	-800.236722	306.480235	659.686112	-866.271849	347.046941	610.577057	-771.114156	149.387365	559.613488	-790.345782	166.488681	661.628866	-202.254432	796.393151	399.558355	-172.220020	813.257662	437.606161	-130.612553	722.529869	462.349388	-168.793550	692.407164	415.998707	-150.070322	573.468259	430.889541	-139.349011	476.369440	407.845376	-95.010303	480.727081	431.238608	-93.188035	380.452181	450.045644	-146.624313	369.408283	415.110812	-110.198938	153.627684	458.684365	-180.123916	95.311364	513.175437	37.687044	153.739358	541.692122	6.231408	125.324058	443.648171	-328.444342	1570.689105	595.223318	-410.570555	1377.280804	616.187257	-221.033906	1488.430268	591.691548	-254.569393	1548.126050	744.833957	-309.387023	1545.846504	420.909576	-257.901369	1222.871366	847.946165	-73.381781	1254.637975	685.540528	-540.189947	1310.085460	334.906771	-321.103232	1178.570914	361.712541
5	0.020000	-223.975152	1013.764762	691.398025	-235.258927	1046.063505	461.658713	-384.367370	1077.074895	638.544160	-394.347943	1081.593288	541.274905	-323.007650	753.003056	720.249361	-269.493426	739.689754	680.705009	-306.431593	644.192615	666.121741	-342.828663	651.194902	693.442375	-407.541976	532.622540	673.246930	-518.811805	471.669868	701.540846	-498.613531	430.826196	671.747375	-581.619140	376.317347	652.941722	-610.139913	421.976902	690.311361	-786.054427	313.998769	660.565428	-851.983186	356.692247	613.190116	-760.532712	157.031620	559.367404	-777.757441	174.427261	661.831737	-189.026053	793.099095	398.065740	-159.025121	810.732684	437.412054	-118.211348	719.518425	462.257146	-155.528658	690.065380	414.750528	-137.966337	571.391597	430.734891	-125.883599	474.206919	407.012429	-83.879235	478.599775	432.518401	-79.835790	378.068504	449.539411	-133.272068	367.024606	414.604580	-92.332179	152.318404	459.136687	-161.539390	92.889650	513.402637	54.428016	154.308579	542.658419	24.764089	124.904720	445.414989	-313.984906	1570.424830	594.551570	-395.615685	1376.586254	615.876669	-207.315740	1488.518865	591.243015	-238.907465	1547.669362	744.585616	-294.501031	1544.573146	420.202094	-244.240411	1222.986014	848.422879	-58.967242	1251.427380	684.982098	-525.028676	1307.749465	335.465203	-305.320898	1177.004078	361.395062
6	0.025000	-208.910398	1013.248452	691.717058	-220.742391	1044.549108	461.375977	-369.400591	1076.094582	639.554708	-379.290207	1080.162038	541.124101	-305.061871	751.874363	719.857740	-252.804446	738.362769	680.216027	-289.742613	642.865629	665.632759	-325.680055	649.514171	693.173488	-386.599519	530.243833	672.617419	-500.115525	471.333982	701.062679	-481.032079	429.947427	670.790044	-566.584613	377.791292	653.025145	-593.282882	425.544714	689.842181	-770.737061	321.504827	661.498508	-836.373935	365.124392	615.162074	-748.884150	164.965920	558.981254	-766.862579	181.085447	661.703167	-174.913056	791.737210	397.649614	-145.682953	808.893792	437.555111	-105.680776	717.209916	462.620497	-141.757926	687.939419	414.604866	-125.690536	569.500287	430.467877	-114.252027	472.381285	407.806387	-71.452493	477.127549	432.386126	-66.433596	375.817356	449.487688	-119.869874	364.773458	414.552857	-75.985123	150.548201	459.895444	-145.136247	91.037315	513.696162	70.473421	155.096049	544.650780	41.669630	124.058216	447.095450	-298.870201	1569.823318	593.950452	-380.763804	1376.177628	615.260036	-192.382663	1487.404756	589.503744	-223.892838	1546.815165	744.078798	-281.064749	1543.710923	419.149008	-231.321814	1222.300569	848.768411	-45.325314	1247.866896	684.686533	-510.174495	1305.657127	335.676287	-289.393283	1176.543856	361.110121
